<?xml version="1.0" encoding="UTF-8"?>
<svg width="600px" height="600px" viewBox="0 0 600 600" version="1.1" xmlns="http://www.w3.org/2000/svg" xmlns:xlink="http://www.w3.org/1999/xlink">
    <!-- Generator: Sketch 52.6 (67491) - http://www.bohemiancoding.com/sketch -->
    <title>Scott Henning Logo</title>
    <desc>Created with Sketch.</desc>
    <g id="Page-1" stroke="none" stroke-width="1" fill="none" fill-rule="evenodd">
        <g id="sh2" fill="#ffffff" fill-rule="nonzero">
            <polygon id="ScottHenningLogo" points="525 342.855422 600 300 300 128.566265 225 171.433735 300 214.289157 337.506024 235.710843 300 257.144578 150 171.433735 300 85.7108434 375 128.566265 450 171.433735 525 214.289157 600 171.433735 300 0 133.873751 94.9321447 0 171.433735 225 300 187.506024 321.433735 150 300 75 257.144578 0 300 300 471.433735 375 428.566265 300 385.710843 262.506024 364.289157 300 342.855422 450 428.566265 300 514.289157 225 471.433735 150 428.566265 75 385.710843 0 428.566265 300 600 600 428.566265 375 300 412.506024 278.566265 450 300"></polygon>
        </g>
    </g>
</svg>